<svg width="25" height="21" viewBox="0 0 25 21" fill="none" xmlns="http://www.w3.org/2000/svg">
<path d="M24.596 8.64365L12.9164 0.149481C12.7834 0.0523458 12.6229 0 12.4582 0C12.2935 0 12.133 0.0523458 12 0.149481L0.320411 8.64365C0.23774 8.70383 0.167731 8.7797 0.114381 8.86693C0.0610312 8.95416 0.025386 9.05105 0.00947927 9.15205C-0.00642745 9.25306 -0.00228362 9.35621 0.0216745 9.45562C0.0456325 9.55503 0.0889355 9.64874 0.149111 9.73141C0.209286 9.81408 0.285156 9.88409 0.372388 9.93744C0.459619 9.99079 0.556504 10.0264 0.657512 10.0423C0.861506 10.0745 1.06991 10.0242 1.23687 9.90271L2.7739 8.78459V19.466C2.7739 19.6725 2.85594 19.8705 3.00196 20.0165C3.14798 20.1626 3.34603 20.2446 3.55254 20.2446H9.84005C10.0466 20.2446 10.2446 20.1626 10.3906 20.0165C10.5367 19.8705 10.6187 19.6725 10.6187 19.466V12.1522H14.2978V19.466C14.2978 19.6725 14.3798 19.8705 14.5258 20.0165C14.6718 20.1626 14.8699 20.2446 15.0764 20.2446H21.3639C21.5704 20.2446 21.7685 20.1626 21.9145 20.0165C22.0605 19.8705 22.1425 19.6725 22.1425 19.466V8.78536L23.6796 9.90349C23.7622 9.96382 23.856 10.0072 23.9554 10.0313C24.0549 10.0553 24.1581 10.0594 24.2592 10.0434C24.3603 10.0274 24.4572 9.99163 24.5444 9.93809C24.6316 9.88455 24.7073 9.81431 24.7673 9.73141C24.8275 9.64874 24.8708 9.55503 24.8948 9.45562C24.9187 9.35621 24.9229 9.25306 24.907 9.15205C24.8911 9.05105 24.8554 8.95416 24.8021 8.86693C24.7487 8.7797 24.6787 8.70383 24.596 8.64365ZM20.5853 18.6881H15.855V11.3743C15.855 11.1678 15.773 10.9698 15.627 10.8238C15.481 10.6777 15.2829 10.5957 15.0764 10.5957H9.84005C9.63354 10.5957 9.43549 10.6777 9.28947 10.8238C9.14345 10.9698 9.06141 11.1678 9.06141 11.3743V18.6881H4.33118V7.65244L12.4586 1.7418L20.586 7.65244L20.5853 18.6881Z" fill="#36A187"/>
</svg>
